Coordinates
version=1
nRows=49
nColumns=12
inDegrees=yes

Units are S.I. units (second, meters, Newtons, ...)
Angles are in degrees

endheader
time	SC_y	SC_z	SC_x	AC_y	AC_z	AC_x	GH_y	GH_z	GH_yy	EL_x	PS_y
       0.0              -17.44          38.48          53.07          59.55          1.455         -9.072         -138.8           23.3          40.84          61.56          92.79
    0.0313              -17.45          38.47          53.07          59.55          1.456         -9.071         -138.8          23.31          40.83          61.57          92.79
    0.0626              -17.45          38.47          53.08          59.55          1.458         -9.071         -138.8          23.32          40.82          61.58           92.8
    0.0939              -17.45          38.46          53.08          59.55          1.459          -9.07         -138.8          23.33          40.82          61.59           92.8
    0.1252              -17.45          38.45          53.08          59.55           1.46          -9.07         -138.7          23.34          40.81          61.59           92.8
    0.1565              -17.45          38.45          53.08          59.55          1.462         -9.069         -138.7          23.36           40.8           61.6          92.81
    0.1878              -17.46          38.44          53.09          59.55          1.463         -9.069         -138.7          23.37          40.79          61.61          92.81
    0.2191              -17.46          38.43          53.09          59.55          1.465         -9.068         -138.6          23.38          40.78          61.62          92.81
    0.2504              -17.46          38.42          53.09          59.55          1.466         -9.068         -138.6           23.4          40.77          61.63          92.82
    0.2817              -17.47          38.41           53.1          59.56          1.468         -9.067         -138.5          23.41          40.76          61.65          92.82
     0.313              -17.47           38.4           53.1          59.56           1.47         -9.066         -138.5          23.43          40.74          61.66          92.83
    0.3443              -17.47          38.39          53.11          59.56          1.472         -9.065         -138.4          23.45          40.73          61.67          92.83
    0.3756              -17.48          38.38          53.11          59.56          1.475         -9.065         -138.4          23.47          40.72          61.69          92.84
    0.4069              -17.48          38.36          53.12          59.56          1.477         -9.064         -138.3          23.49           40.7           61.7          92.84
    0.4382              -17.49          38.35          53.12          59.57           1.48         -9.063         -138.2          23.52          40.68          61.72          92.85
    0.4695              -17.49          38.33          53.13          59.57          1.483         -9.062         -138.2          23.54          40.66          61.74          92.85
    0.5008               -17.5          38.32          53.13          59.57          1.486         -9.061         -138.1          23.57          40.64          61.76          92.86
    0.5321               -17.5           38.3          53.14          59.57           1.49         -9.059         -138.0           23.6          40.62          61.78          92.87
    0.5634              -17.51          38.28          53.15          59.58          1.494         -9.058         -137.9          23.63           40.6          61.81          92.88
    0.5947              -17.51          38.26          53.16          59.58          1.498         -9.056         -137.8          23.67          40.57          61.83          92.89
     0.626              -17.52          38.23          53.16          59.58          1.502         -9.055         -137.7          23.71          40.54          61.86           92.9
    0.6573              -17.53          38.21          53.17          59.59          1.507         -9.053         -137.6          23.75          40.51          61.89          92.91
    0.6886              -17.54          38.18          53.19          59.59          1.513         -9.051         -137.5           23.8          40.48          61.93          92.92
    0.7199              -17.55          38.14           53.2           59.6          1.519         -9.049         -137.3          23.86          40.44          61.97          92.94
    0.7512              -17.56          38.11          53.21           59.6          1.526         -9.046         -137.1          23.92           40.4          62.01          92.95
    0.7825              -17.57          38.07          53.23          59.61          1.534         -9.043         -137.0          23.98          40.35          62.06          92.97
    0.8138              -17.59          38.02          53.24          59.62          1.542          -9.04         -136.8          24.06           40.3          62.11          92.99
    0.8451               -17.6          37.97          53.26          59.62          1.552         -9.037         -136.5          24.14          40.24          62.18          93.01
    0.8764              -17.62          37.92          53.29          59.63          1.563         -9.033         -136.3          24.24          40.17          62.24          93.04
    0.9077              -17.64          37.85          53.31          59.64          1.575         -9.028         -136.0          24.34          40.09          62.32          93.06
     0.939              -17.67          37.78          53.34          59.65           1.59         -9.023         -135.6          24.47           40.0          62.41           93.1
    0.9703              -17.69          37.69          53.37          59.67          1.606         -9.017         -135.2          24.61           39.9          62.52          93.13
     1.002              -17.72          37.59          53.41          59.68          1.625         -9.011         -134.8          24.77          39.78          62.63          93.18
     1.033              -17.76          37.48          53.45           59.7          1.646         -9.003         -134.3          24.96          39.65          62.77          93.23
     1.064               -17.8          37.35           53.5          59.72          1.672         -8.994         -133.6          25.18          39.49          62.93          93.28
     1.095              -17.85          37.19          53.56          59.74          1.702         -8.983         -132.9          25.44           39.3          63.12          93.35
     1.127              -17.91           37.0          53.63          59.77          1.738          -8.97         -132.1          25.75          39.08          63.35          93.43
     1.158              -17.98          36.78          53.72           59.8          1.781         -8.954         -131.0          26.12          38.81          63.62          93.53
     1.189              -18.07          36.51          53.82          59.85          1.832         -8.936         -129.8          26.57          38.49          63.95          93.65
     1.221              -18.17          36.18          53.95           59.9          1.896         -8.913         -128.3          27.12           38.1          64.35          93.79
     1.252               -18.3          35.77           54.1          59.96          1.974         -8.885         -126.4           27.8          37.61          64.84          93.97
     1.283              -18.46          35.26           54.3          60.04          2.071         -8.849         -124.1          28.65           37.0          65.46          94.19
     1.315              -18.67          34.62          54.54          60.13          2.194         -8.805         -121.1          29.71          36.24          66.24          94.47
     1.346              -18.93          33.81          54.85          60.26           2.35         -8.749         -117.4          31.06          35.27          67.23          94.83
     1.377              -19.26          32.77          55.25          60.42           2.55         -8.677         -112.6           32.8          34.03          68.49          95.28
     1.408              -19.68          31.43          55.76          60.62          2.806         -8.584         -106.4          35.02          32.43          70.11          95.86
      1.44              -20.22          29.72          56.42          60.88          3.134         -8.466         -98.54          37.86          30.39          72.19          96.61
     1.471              -20.91          27.57          57.24          61.21          3.546         -8.317         -88.65          41.43          27.83          74.79          97.55
     1.502              -21.74          24.95          58.24          61.61          4.047         -8.136          -76.6          45.79          24.71          77.97          98.69
